<mxfile host="Electron" modified="2023-05-29T16:49:47.383Z" agent="Mozilla/5.0 (Windows NT 10.0; Win64; x64) AppleWebKit/537.36 (KHTML, like Gecko) draw.io/21.2.8 Chrome/112.0.5615.165 Electron/24.2.0 Safari/537.36" etag="84nLi3cofNHtfp2Yb22y" version="21.2.8" type="device">
  <diagram name="Pagina-1" id="66Vx58ZnBwCVm7Y-ApX3">
    <mxGraphModel dx="1075" dy="518" grid="1" gridSize="10" guides="1" tooltips="1" connect="1" arrows="1" fold="1" page="1" pageScale="1" pageWidth="827" pageHeight="1169" math="0" shadow="0">
      <root>
        <mxCell id="0" />
        <mxCell id="1" parent="0" />
        <mxCell id="4QUommuGkDLAjt02FosU-11" value="" style="edgeStyle=orthogonalEdgeStyle;rounded=0;orthogonalLoop=1;jettySize=auto;html=1;" edge="1" parent="1" source="4QUommuGkDLAjt02FosU-1" target="4QUommuGkDLAjt02FosU-2">
          <mxGeometry relative="1" as="geometry" />
        </mxCell>
        <mxCell id="4QUommuGkDLAjt02FosU-13" value="" style="edgeStyle=orthogonalEdgeStyle;rounded=0;orthogonalLoop=1;jettySize=auto;html=1;entryX=0;entryY=0.5;entryDx=0;entryDy=0;" edge="1" parent="1" target="4QUommuGkDLAjt02FosU-5">
          <mxGeometry relative="1" as="geometry">
            <mxPoint x="145" y="200" as="sourcePoint" />
            <mxPoint x="145" y="130" as="targetPoint" />
            <Array as="points">
              <mxPoint x="145" y="125" />
            </Array>
          </mxGeometry>
        </mxCell>
        <mxCell id="4QUommuGkDLAjt02FosU-1" value="User" style="shape=umlActor;verticalLabelPosition=bottom;verticalAlign=top;html=1;outlineConnect=0;" vertex="1" parent="1">
          <mxGeometry x="120" y="210" width="50" height="90" as="geometry" />
        </mxCell>
        <mxCell id="4QUommuGkDLAjt02FosU-2" value="Login" style="ellipse;whiteSpace=wrap;html=1;" vertex="1" parent="1">
          <mxGeometry x="240" y="230" width="150" height="50" as="geometry" />
        </mxCell>
        <mxCell id="4QUommuGkDLAjt02FosU-5" value="Registration" style="ellipse;whiteSpace=wrap;html=1;" vertex="1" parent="1">
          <mxGeometry x="240" y="100" width="150" height="50" as="geometry" />
        </mxCell>
        <mxCell id="4QUommuGkDLAjt02FosU-7" value="Create Playlist" style="ellipse;whiteSpace=wrap;html=1;" vertex="1" parent="1">
          <mxGeometry x="430" y="160" width="150" height="50" as="geometry" />
        </mxCell>
        <mxCell id="4QUommuGkDLAjt02FosU-8" value="Check Emotion" style="ellipse;whiteSpace=wrap;html=1;" vertex="1" parent="1">
          <mxGeometry x="430" y="230" width="150" height="50" as="geometry" />
        </mxCell>
        <mxCell id="4QUommuGkDLAjt02FosU-9" value="Add Emotion" style="ellipse;whiteSpace=wrap;html=1;" vertex="1" parent="1">
          <mxGeometry x="620" y="230" width="150" height="50" as="geometry" />
        </mxCell>
        <mxCell id="4QUommuGkDLAjt02FosU-15" value="" style="endArrow=none;html=1;rounded=0;exitX=0.5;exitY=0;exitDx=0;exitDy=0;entryX=0.5;entryY=1;entryDx=0;entryDy=0;" edge="1" parent="1" source="4QUommuGkDLAjt02FosU-2" target="4QUommuGkDLAjt02FosU-5">
          <mxGeometry width="50" height="50" relative="1" as="geometry">
            <mxPoint x="350" y="220" as="sourcePoint" />
            <mxPoint x="319" y="152" as="targetPoint" />
          </mxGeometry>
        </mxCell>
        <mxCell id="4QUommuGkDLAjt02FosU-16" value="" style="endArrow=none;html=1;rounded=0;entryX=-0.006;entryY=0.566;entryDx=0;entryDy=0;entryPerimeter=0;exitX=1;exitY=0;exitDx=0;exitDy=0;" edge="1" parent="1" source="4QUommuGkDLAjt02FosU-2" target="4QUommuGkDLAjt02FosU-7">
          <mxGeometry width="50" height="50" relative="1" as="geometry">
            <mxPoint x="390" y="220" as="sourcePoint" />
            <mxPoint x="440" y="170" as="targetPoint" />
          </mxGeometry>
        </mxCell>
        <mxCell id="4QUommuGkDLAjt02FosU-17" value="" style="endArrow=none;html=1;rounded=0;entryX=0;entryY=0.5;entryDx=0;entryDy=0;exitX=1;exitY=0.5;exitDx=0;exitDy=0;" edge="1" parent="1" source="4QUommuGkDLAjt02FosU-2" target="4QUommuGkDLAjt02FosU-8">
          <mxGeometry width="50" height="50" relative="1" as="geometry">
            <mxPoint x="390" y="220" as="sourcePoint" />
            <mxPoint x="440" y="170" as="targetPoint" />
          </mxGeometry>
        </mxCell>
        <mxCell id="4QUommuGkDLAjt02FosU-18" value="" style="endArrow=none;html=1;rounded=0;entryX=0;entryY=0.5;entryDx=0;entryDy=0;exitX=1;exitY=0.5;exitDx=0;exitDy=0;" edge="1" parent="1" source="4QUommuGkDLAjt02FosU-8" target="4QUommuGkDLAjt02FosU-9">
          <mxGeometry width="50" height="50" relative="1" as="geometry">
            <mxPoint x="540" y="220" as="sourcePoint" />
            <mxPoint x="590" y="170" as="targetPoint" />
          </mxGeometry>
        </mxCell>
      </root>
    </mxGraphModel>
  </diagram>
</mxfile>
